<?xml version="1.0" standalone="no"?>
<!DOCTYPE svg PUBLIC "-//W3C//DTD SVG 20010904//EN"
 "http://www.w3.org/TR/2001/REC-SVG-20010904/DTD/svg10.dtd">
<svg version="1.0" xmlns="http://www.w3.org/2000/svg"
 width="209.000000pt" height="256.000000pt" viewBox="0 0 209.000000 256.000000"
 preserveAspectRatio="xMidYMid meet">
<metadata>
Created by potrace 1.15, written by Peter Selinger 2001-2017
</metadata>
<g transform="translate(0.000000,256.000000) scale(0.100000,-0.100000)"
fill="#000000" stroke="none">
<path d="M964 2515 c-14 -22 -16 -41 -10 -112 3 -48 11 -92 17 -100 15 -18 54
-16 73 3 22 22 23 180 0 212 -21 30 -59 29 -80 -3z"/>
<path d="M1631 2163 c-34 -39 -61 -77 -61 -90 0 -27 25 -53 50 -53 26 0 149
129 150 157 0 40 -11 53 -45 53 -28 0 -42 -10 -94 -67z"/>
<path d="M276 2194 c-31 -30 -19 -58 53 -127 71 -69 97 -79 125 -51 29 29 18
55 -52 126 -71 70 -97 81 -126 52z"/>
<path d="M886 2194 c-265 -59 -466 -239 -552 -494 -26 -75 -26 -267 -1 -360
28 -100 97 -233 187 -360 98 -137 140 -220 140 -276 l0 -40 253 3 c138 2 311
6 383 9 l132 6 6 51 c10 71 33 119 125 260 142 217 192 353 193 527 1 185 -57
325 -192 461 -96 97 -187 153 -315 195 -103 33 -257 41 -359 18z m342 -107
c267 -92 437 -311 436 -562 -1 -162 -43 -271 -187 -495 -79 -121 -126 -216
-127 -252 0 -16 -12 -18 -104 -18 l-104 0 -7 63 c-8 78 8 219 36 313 18 62 26
74 51 85 17 7 38 26 48 42 10 16 20 23 22 17 6 -20 65 16 83 50 8 16 15 42 15
57 0 20 3 24 9 14 7 -11 11 -10 19 5 16 32 23 74 12 74 -6 0 -3 11 6 25 12 18
14 37 10 67 -3 24 -8 60 -11 81 -6 48 -23 80 -39 74 -8 -3 -11 6 -8 29 5 39
-17 79 -49 89 -11 4 -33 20 -48 36 -17 19 -40 32 -65 36 -25 4 -48 16 -62 32
-16 19 -30 25 -59 24 -55 -2 -69 -21 -76 -111 l-6 -77 -1 73 c-2 85 -20 112
-77 112 -33 0 -75 -27 -75 -49 0 -4 -19 -11 -42 -14 -28 -4 -52 -15 -72 -36
-17 -17 -43 -42 -58 -55 -23 -20 -28 -34 -28 -70 0 -35 -3 -44 -14 -40 -17 6
-29 -24 -32 -76 -1 -19 -5 -48 -9 -65 -4 -17 -1 -43 6 -60 7 -16 11 -34 10
-38 -1 -5 3 -26 9 -48 8 -29 15 -39 26 -35 8 3 14 -1 14 -10 0 -49 68 -123
102 -112 6 2 23 -9 39 -24 15 -15 34 -28 43 -28 18 0 52 -86 72 -183 14 -66
24 -251 14 -260 -3 -2 -51 -7 -107 -9 -90 -4 -103 -3 -103 11 0 33 -60 141
-145 262 -48 68 -103 156 -121 194 -158 330 -53 651 268 820 151 80 330 95
486 42z m-164 -831 c10 -16 30 -33 46 -39 l27 -10 -18 -57 c-26 -85 -41 -204
-37 -303 l3 -87 -37 0 -38 0 0 69 c0 97 -17 212 -45 300 -14 41 -23 75 -22 76
1 0 15 7 32 15 48 25 55 50 57 225 l2 160 6 -160 c4 -134 8 -166 24 -189z"/>
<path d="M1827 1473 c-25 -6 -40 -49 -27 -74 14 -26 45 -32 141 -27 66 3 83 7
95 23 19 26 18 41 -6 65 -17 17 -32 20 -102 19 -46 -1 -91 -3 -101 -6z"/>
<path d="M102 1441 c-63 -6 -82 -18 -82 -52 0 -36 33 -49 126 -49 92 0 115 8
128 43 4 12 -3 27 -19 43 -26 25 -34 26 -153 15z"/>
<path d="M1588 919 c-38 -21 -22 -62 51 -132 73 -71 97 -79 126 -47 27 29 13
59 -59 128 -64 62 -85 71 -118 51z"/>
<path d="M383 843 c-70 -75 -79 -93 -63 -123 21 -39 62 -26 129 43 70 70 82
98 56 127 -31 34 -56 24 -122 -47z"/>
<path d="M907 650 c-201 -5 -220 -7 -233 -24 -18 -25 -18 -47 -1 -70 13 -17
33 -19 308 -16 162 1 325 5 364 9 61 5 71 9 84 32 13 24 13 29 -2 53 l-17 26
-143 -2 c-78 -1 -240 -5 -360 -8z"/>
<path d="M987 510 c-288 -5 -289 -5 -308 -29 -25 -30 -24 -46 2 -72 21 -21 27
-22 172 -15 83 3 239 6 349 6 185 0 199 1 218 20 11 11 20 31 20 44 0 39 -35
56 -105 54 -33 -1 -190 -5 -348 -8z"/>
<path d="M780 363 c-46 -2 -90 -9 -97 -15 -18 -14 -16 -73 2 -88 11 -9 94 -11
367 -5 384 8 388 9 388 65 0 49 -4 50 -299 48 -152 -1 -314 -4 -361 -5z"/>
<path d="M914 223 c-85 -3 -104 -7 -119 -23 -29 -32 -13 -67 36 -80 22 -6 74
-29 115 -51 103 -54 136 -52 239 14 27 18 70 39 95 47 36 12 46 20 48 41 2 15
-4 34 -13 43 -17 16 -98 18 -401 9z"/>
</g>
</svg>
